<svg width="25" height="26" viewBox="0 0 25 26" fill="none" xmlns="http://www.w3.org/2000/svg">
<g clip-path="url(#clip0)">
<path d="M8.42735 2.82253C8.42735 2.07727 9.00897 1.53261 9.75423 1.53261H15.2088C15.9538 1.53261 16.5355 2.07727 16.5355 2.82253V4.23531H17.5183V2.82253C17.5183 1.53548 16.4959 0.549805 15.2088 0.549805H9.75423C8.46718 0.549805 7.44455 1.53548 7.44455 2.82253V4.23531H8.42735V2.82253Z" fill="white"/>
<path d="M6.67074 25.5498H18.2923C19.4128 25.5498 20.2824 24.5641 20.2824 23.3385V8.16652H4.68042V23.3385C4.68042 24.5641 5.54997 25.5498 6.67074 25.5498ZM15.6141 10.5129C15.6141 10.2415 15.8341 10.0215 16.1055 10.0215C16.3769 10.0215 16.5969 10.2415 16.5969 10.5129V22.1222C16.5969 22.3936 16.3769 22.6136 16.1055 22.6136C15.8341 22.6136 15.6141 22.3936 15.6141 22.1222V10.5129ZM11.99 10.5129C11.99 10.2415 12.21 10.0215 12.4814 10.0215C12.7528 10.0215 12.9728 10.2415 12.9728 10.5129V22.1222C12.9728 22.3936 12.7528 22.6136 12.4814 22.6136C12.21 22.6136 11.99 22.3936 11.99 22.1222V10.5129ZM8.36592 10.5129C8.36592 10.2415 8.58595 10.0215 8.85732 10.0215C9.1287 10.0215 9.34872 10.2415 9.34872 10.5129V22.1222C9.34872 22.3936 9.1287 22.6136 8.85732 22.6136C8.58595 22.6136 8.36592 22.3936 8.36592 22.1222V10.5129Z" fill="white"/>
<path d="M4.17677 7.18372H20.786C21.4646 7.18372 22.0145 6.63377 22.0145 5.95522C22.0145 5.27666 21.4646 4.72672 20.786 4.72672H4.17677C3.49822 4.72672 2.94827 5.27666 2.94827 5.95522C2.94827 6.63377 3.49822 7.18372 4.17677 7.18372Z" fill="white"/>
</g>
<defs>
<clipPath id="clip0">
<rect x="-0.00012207" y="0.549805" width="25" height="25" fill="white"/>
</clipPath>
</defs>
</svg>
