<svg width="26" height="26" viewBox="0 0 26 26" fill="none" xmlns="http://www.w3.org/2000/svg">
<g clip-path="url(#clip0)">
<path d="M25.0204 9.73986L18.7703 3.48975C18.4215 3.14111 17.8562 3.14121 17.5075 3.48996C17.3402 3.65737 17.2462 3.88432 17.2461 4.12105V6.79967H10.996C10.5029 6.79967 10.1031 7.19942 10.1031 7.69255C10.1031 8.18569 10.5029 8.58544 10.996 8.58544H18.139C18.6321 8.58544 19.0319 8.18569 19.0319 7.69255V6.27639L23.1266 10.3711L19.0319 14.4658V13.0497C19.0319 12.5566 18.6321 12.1568 18.139 12.1568H8.31738V9.47823C8.31728 8.98509 7.91742 8.58544 7.42434 8.58555C7.18766 8.5856 6.96066 8.67961 6.79324 8.84697L0.543178 15.0971C0.194592 15.4458 0.194592 16.011 0.543178 16.3596L6.7933 22.6097C6.96071 22.7772 7.18776 22.8713 7.42455 22.8714C7.54189 22.8717 7.65819 22.8486 7.76649 22.8035C8.10006 22.6652 8.31749 22.3396 8.31738 21.9785V19.2998H14.5675C15.0606 19.2998 15.4604 18.9001 15.4604 18.407C15.4604 17.9138 15.0606 17.5141 14.5675 17.5141H7.42455C6.93141 17.5141 6.53166 17.9138 6.53166 18.407V19.8231L2.43694 15.7283L6.53166 11.6336V13.0497C6.53166 13.5429 6.93141 13.9426 7.42455 13.9426H17.2461V16.6212C17.2462 17.1144 17.6461 17.514 18.1392 17.5139C18.3758 17.5139 18.6028 17.4198 18.7703 17.2525L25.0204 11.0024C25.3689 10.6537 25.3689 10.0885 25.0204 9.73986Z" fill="white"/>
</g>
<defs>
<clipPath id="clip0">
<rect x="0.281738" y="0.549805" width="25" height="25" fill="white"/>
</clipPath>
</defs>
</svg>
